<svg width="48" height="48" viewBox="0 0 48 48" xmlns="http://www.w3.org/2000/svg">
  <defs>
    <linearGradient id="grad48" x1="0%" y1="0%" x2="100%" y2="100%">
      <stop offset="0%" style="stop-color:#667eea;stop-opacity:1" />
      <stop offset="100%" style="stop-color:#764ba2;stop-opacity:1" />
    </linearGradient>
  </defs>
  <!-- Background -->
  <rect width="48" height="48" rx="9" fill="url(#grad48)"/>
  
  <!-- Tab shapes -->
  <rect x="6" y="9" width="12" height="7.5" rx="1.5" fill="white" opacity="0.9"/>
  <rect x="19.5" y="9" width="12" height="7.5" rx="1.5" fill="white" opacity="0.7"/>
  <rect x="33" y="9" width="9" height="7.5" rx="1.5" fill="white" opacity="0.5"/>
  
  <!-- Active tab indicator -->
  <rect x="6" y="15.6" width="12" height="0.9" fill="#FBC02D"/>
  
  <!-- Tab content area -->
  <rect x="6" y="18" width="36" height="21" rx="3" fill="white" opacity="0.15"/>
  
  <!-- Grid lines to show organization -->
  <rect x="9" y="24" width="9" height="1.5" rx="0.75" fill="white" opacity="0.6"/>
  <rect x="9" y="28.5" width="12" height="1.5" rx="0.75" fill="white" opacity="0.4"/>
  <rect x="9" y="33" width="7.5" height="1.5" rx="0.75" fill="white" opacity="0.6"/>
  
  <rect x="27" y="24" width="10.5" height="1.5" rx="0.75" fill="white" opacity="0.4"/>
  <rect x="27" y="28.5" width="6" height="1.5" rx="0.75" fill="white" opacity="0.6"/>
  <rect x="27" y="33" width="12" height="1.5" rx="0.75" fill="white" opacity="0.4"/>
  
  <!-- Additional organization elements -->
  <circle cx="12" cy="21" r="1" fill="white" opacity="0.3"/>
  <circle cx="36" cy="21" r="1" fill="white" opacity="0.3"/>
</svg> 