<svg width="128" height="128" viewBox="0 0 128 128" xmlns="http://www.w3.org/2000/svg">
  <defs>
    <linearGradient id="grad128" x1="0%" y1="0%" x2="100%" y2="100%">
      <stop offset="0%" style="stop-color:#667eea;stop-opacity:1" />
      <stop offset="100%" style="stop-color:#764ba2;stop-opacity:1" />
    </linearGradient>
    <linearGradient id="tabGlow" x1="0%" y1="0%" x2="100%" y2="100%">
      <stop offset="0%" style="stop-color:#ffffff;stop-opacity:1" />
      <stop offset="100%" style="stop-color:#ffffff;stop-opacity:0.8" />
    </linearGradient>
  </defs>
  <!-- Background -->
  <rect width="128" height="128" rx="24" fill="url(#grad128)"/>
  
  <!-- Tab shapes with more detail -->
  <rect x="16" y="24" width="32" height="20" rx="4" fill="url(#tabGlow)" opacity="0.95"/>
  <rect x="52" y="24" width="32" height="20" rx="4" fill="white" opacity="0.75"/>
  <rect x="88" y="24" width="24" height="20" rx="4" fill="white" opacity="0.55"/>
  
  <!-- Active tab indicator -->
  <rect x="16" y="41.6" width="32" height="2.4" fill="#FBC02D"/>
  
  <!-- Tab content area -->
  <rect x="16" y="48" width="96" height="56" rx="8" fill="white" opacity="0.15"/>
  
  <!-- Grid lines showing organization with varied sizes -->
  <rect x="24" y="64" width="24" height="4" rx="2" fill="white" opacity="0.7"/>
  <rect x="24" y="76" width="32" height="4" rx="2" fill="white" opacity="0.5"/>
  <rect x="24" y="88" width="20" height="4" rx="2" fill="white" opacity="0.7"/>
  
  <rect x="72" y="64" width="28" height="4" rx="2" fill="white" opacity="0.5"/>
  <rect x="72" y="76" width="16" height="4" rx="2" fill="white" opacity="0.7"/>
  <rect x="72" y="88" width="32" height="4" rx="2" fill="white" opacity="0.5"/>
  
  <!-- Organization elements -->
  <circle cx="32" cy="56" r="2.5" fill="white" opacity="0.4"/>
  <circle cx="96" cy="56" r="2.5" fill="white" opacity="0.4"/>
  
  <!-- Search/management indicator -->
  <circle cx="104" cy="32" r="8" fill="white" opacity="0.2"/>
  <circle cx="104" cy="32" r="5" fill="none" stroke="white" stroke-width="1.5" opacity="0.6"/>
  <line x1="108" y1="36" x2="111" y2="39" stroke="white" stroke-width="1.5" opacity="0.6"/>
  
  <!-- Group indicator -->
  <rect x="20" y="28" width="3" height="12" rx="1.5" fill="#FBC02D" opacity="0.8"/>
</svg>