<svg width="16" height="16" viewBox="0 0 16 16" xmlns="http://www.w3.org/2000/svg">
  <defs>
    <linearGradient id="grad16" x1="0%" y1="0%" x2="100%" y2="100%">
      <stop offset="0%" style="stop-color:#667eea;stop-opacity:1" />
      <stop offset="100%" style="stop-color:#764ba2;stop-opacity:1" />
    </linearGradient>
  </defs>
  <!-- Background -->
  <rect width="16" height="16" rx="3" fill="url(#grad16)"/>
  
  <!-- Tab shapes -->
  <rect x="2" y="3" width="4" height="2.5" rx="0.5" fill="white" opacity="0.9"/>
  <rect x="6.5" y="3" width="4" height="2.5" rx="0.5" fill="white" opacity="0.7"/>
  <rect x="11" y="3" width="3" height="2.5" rx="0.5" fill="white" opacity="0.5"/>
  
  <!-- Active tab indicator -->
  <rect x="2" y="5.2" width="4" height="0.3" fill="#FBC02D"/>
  
  <!-- Tab content area -->
  <rect x="2" y="6" width="12" height="7" rx="1" fill="white" opacity="0.15"/>
  
  <!-- Grid lines to show organization -->
  <rect x="3" y="8" width="3" height="0.5" rx="0.25" fill="white" opacity="0.6"/>
  <rect x="3" y="9.5" width="4" height="0.5" rx="0.25" fill="white" opacity="0.4"/>
  <rect x="3" y="11" width="2.5" height="0.5" rx="0.25" fill="white" opacity="0.6"/>
  
  <rect x="9" y="8" width="3.5" height="0.5" rx="0.25" fill="white" opacity="0.4"/>
  <rect x="9" y="9.5" width="2" height="0.5" rx="0.25" fill="white" opacity="0.6"/>
  <rect x="9" y="11" width="4" height="0.5" rx="0.25" fill="white" opacity="0.4"/>
</svg>