<svg width="32" height="32" viewBox="0 0 32 32" xmlns="http://www.w3.org/2000/svg">
  <defs>
    <linearGradient id="grad32" x1="0%" y1="0%" x2="100%" y2="100%">
      <stop offset="0%" style="stop-color:#667eea;stop-opacity:1" />
      <stop offset="100%" style="stop-color:#764ba2;stop-opacity:1" />
    </linearGradient>
  </defs>
  <!-- Background -->
  <rect width="32" height="32" rx="6" fill="url(#grad32)"/>
  
  <!-- Tab shapes -->
  <rect x="4" y="6" width="8" height="5" rx="1" fill="white" opacity="0.9"/>
  <rect x="13" y="6" width="8" height="5" rx="1" fill="white" opacity="0.7"/>
  <rect x="22" y="6" width="6" height="5" rx="1" fill="white" opacity="0.5"/>
  
  <!-- Active tab indicator -->
  <rect x="4" y="10.4" width="8" height="0.6" fill="#FBC02D"/>
  
  <!-- Tab content area -->
  <rect x="4" y="12" width="24" height="14" rx="2" fill="white" opacity="0.15"/>
  
  <!-- Grid lines to show organization -->
  <rect x="6" y="16" width="6" height="1" rx="0.5" fill="white" opacity="0.6"/>
  <rect x="6" y="19" width="8" height="1" rx="0.5" fill="white" opacity="0.4"/>
  <rect x="6" y="22" width="5" height="1" rx="0.5" fill="white" opacity="0.6"/>
  
  <rect x="18" y="16" width="7" height="1" rx="0.5" fill="white" opacity="0.4"/>
  <rect x="18" y="19" width="4" height="1" rx="0.5" fill="white" opacity="0.6"/>
  <rect x="18" y="22" width="8" height="1" rx="0.5" fill="white" opacity="0.4"/>
</svg> 